<?xml version="1.0" encoding="utf-8"?>
<!-- Generator: Adobe Illustrator 16.0.4, SVG Export Plug-In . SVG Version: 6.00 Build 0)  -->
<!DOCTYPE svg PUBLIC "-//W3C//DTD SVG 1.1//EN" "http://www.w3.org/Graphics/SVG/1.1/DTD/svg11.dtd">
<svg version="1.1" xmlns="http://www.w3.org/2000/svg" xmlns:xlink="http://www.w3.org/1999/xlink" x="0px" y="0px" width="660px"
	 height="500px" viewBox="0 0 660 500" enable-background="new 0 0 660 500" xml:space="preserve">
<g id="Layer_1">
</g>
<g id="Objects">
	<g>
		<path d="M654.604,248.682c-72.485-14.214-9.947-95.231-32.689-147.822c-11.948-27.629-37.227-35.239-58.538-36.251
			c-2.542-6.596-24.173-57.006-89.28-49.033c-69.651,8.528-127.931,45.484-144.982-2.843c-17.057,48.327-75.34,11.371-144.985,2.843
			C119.01,7.603,97.383,58.013,94.847,64.609c-21.312,1.012-46.593,8.622-58.539,36.251
			C13.567,153.451,76.099,234.468,3.612,248.682c72.487,14.212,9.956,95.237,32.696,147.828
			c11.946,27.624,37.228,35.239,58.539,36.249c2.536,6.598,24.163,57.005,89.281,49.031c69.646-8.523,127.929-45.484,144.985,2.841
			c17.052-48.325,75.331-11.364,144.982-2.841c65.107,7.974,86.738-42.434,89.28-49.031c21.312-1.01,46.59-8.625,58.538-36.249
			C644.656,343.919,582.118,262.894,654.604,248.682z"/>
		<path fill="none" stroke="#FFF6E0" stroke-width="6.7921" d="M487.657,469.062c-3.831,0-7.839-0.258-11.914-0.752
			c-19.704-2.414-38.283-7.161-56.259-11.744c-20.81-5.316-38.785-9.907-54.821-9.907c-14.897,0-26.784,4.252-35.55,12.667
			c-8.772-8.415-20.659-12.667-35.559-12.667c-16.035,0-34.014,4.591-54.827,9.907c-17.969,4.583-36.548,9.33-56.25,11.744
			c-4.074,0.494-8.083,0.752-11.914,0.752c-44.924,0-60.392-34.303-63.038-41.179l-3.18-8.272l-8.855-0.42
			c-23.424-1.112-39.142-10.558-46.715-28.072c-7.362-17.033-3.472-39.856,0.288-61.928c4.543-26.675,10.371-60.883-12.571-80.51
			c22.942-19.62,17.114-53.828,12.571-80.503c-3.76-22.075-7.65-44.9-0.288-61.928c7.574-17.516,23.292-26.961,46.715-28.072
			l8.855-0.422l3.18-8.271c2.646-6.875,18.114-41.179,63.038-41.179c3.831,0,7.84,0.253,11.914,0.751
			c19.703,2.414,38.282,7.157,56.25,11.744c20.813,5.314,38.792,9.905,54.83,9.903c14.897,0,26.783-4.246,35.556-12.665
			c8.766,8.42,20.652,12.667,35.55,12.665c16.036,0,34.012-4.589,54.821-9.901c17.976-4.589,36.555-9.332,56.259-11.746
			c4.075-0.498,8.083-0.751,11.914-0.751c44.901,0,60.388,34.307,63.039,41.185l3.188,8.267l8.849,0.42
			c23.42,1.11,39.138,10.556,46.719,28.073c7.356,17.026,3.472,39.852-0.292,61.926c-4.543,26.675-10.374,60.883,12.564,80.503
			c-22.938,19.619-17.107,53.835-12.564,80.51c3.764,22.071,7.648,44.895,0.285,61.928c-7.574,17.515-23.292,26.96-46.712,28.072
			l-8.849,0.42l-3.188,8.266c-2.651,6.876-18.138,41.179-63.025,41.186C487.664,469.062,487.664,469.062,487.657,469.062z"/>
		<g>
			<g>
				<path fill="none" stroke="#FFF6E0" stroke-width="5.094" stroke-linecap="round" stroke-linejoin="round" d="M329.154,446.232
					c-0.014,0.009-0.027,0.018-0.041,0.027c-0.014-0.01-0.027-0.019-0.041-0.027"/>
				
					<path fill="none" stroke="#FFF6E0" stroke-width="5.094" stroke-linecap="round" stroke-linejoin="round" stroke-dasharray="0.1018,13.5707" d="
					M316.964,440.184c-6.625-2.34-14.366-3.709-23.41-3.709c-17.314,0-36.76,4.964-57.348,10.219
					c-17.657,4.509-35.914,9.168-54.967,11.5c-3.665,0.454-7.257,0.678-10.676,0.678c-38.265,0-51.304-28.858-53.53-34.648
					l-3.111-8.093"/>
				<polyline fill="none" stroke="#FFF6E0" stroke-width="5.094" stroke-linecap="round" stroke-linejoin="round" points="
					111.486,409.794 111.468,409.746 111.417,409.744 				"/>
				
					<path fill="none" stroke="#FFF6E0" stroke-width="5.094" stroke-linecap="round" stroke-linejoin="round" stroke-dasharray="0.1012,13.4969" d="
					M97.936,409.106l-1.961-0.093c-25.955-1.234-34.031-13.114-37.848-21.942c-6.162-14.253-2.534-35.564,0.978-56.171
					c3.739-21.949,9.078-53.272-4.558-76.582"/>
				<path fill="none" stroke="#FFF6E0" stroke-width="5.094" stroke-linecap="round" stroke-linejoin="round" d="M50.773,248.724
					c-0.011-0.014-0.022-0.028-0.033-0.042c0.011-0.014,0.022-0.028,0.033-0.042"/>
				
					<path fill="none" stroke="#FFF6E0" stroke-width="5.094" stroke-linecap="round" stroke-linejoin="round" stroke-dasharray="0.1012,13.4967" d="
					M57.587,237.027c9.711-22.473,4.943-50.453,1.518-70.559c-3.512-20.61-7.14-41.92-0.978-56.173
					c3.817-8.83,11.894-20.708,37.848-21.94l8.704-0.413"/>
				<polyline fill="none" stroke="#FFF6E0" stroke-width="5.094" stroke-linecap="round" stroke-linejoin="round" points="
					111.417,87.622 111.468,87.619 111.486,87.572 				"/>
				
					<path fill="none" stroke="#FFF6E0" stroke-width="5.094" stroke-linecap="round" stroke-linejoin="round" stroke-dasharray="0.1018,13.5704" d="
					M116.356,74.905l0.677-1.762c2.226-5.786,15.265-34.647,53.53-34.647c3.419,0,7.011,0.227,10.676,0.678
					c19.054,2.333,37.311,6.994,54.967,11.5c20.588,5.257,40.033,10.222,57.351,10.22c12.048,0,21.785-2.43,29.65-6.347"/>
				<path fill="none" stroke="#FFF6E0" stroke-width="5.094" stroke-linecap="round" stroke-linejoin="round" d="M329.069,51.14
					c0.014-0.009,0.027-0.019,0.041-0.028c0.014,0.009,0.027,0.019,0.041,0.028"/>
				
					<path fill="none" stroke="#FFF6E0" stroke-width="5.094" stroke-linecap="round" stroke-linejoin="round" stroke-dasharray="0.1018,13.5704" d="
					M341.26,57.188c6.623,2.338,14.361,3.706,23.403,3.705c17.317,0,36.765-4.965,57.344-10.218
					c17.656-4.508,35.917-9.169,54.978-11.502c3.661-0.451,7.255-0.678,10.673-0.678c38.249,0,51.302,28.87,53.533,34.657
					l3.115,8.086"/>
				<polyline fill="none" stroke="#FFF6E0" stroke-width="5.094" stroke-linecap="round" stroke-linejoin="round" points="
					546.745,87.573 546.764,87.621 546.814,87.623 				"/>
				
					<path fill="none" stroke="#FFF6E0" stroke-width="5.094" stroke-linecap="round" stroke-linejoin="round" stroke-dasharray="0.1012,13.4959" d="
					M560.295,88.262l1.949,0.092c25.956,1.232,34.032,13.112,37.85,21.942c6.163,14.251,2.536,35.561-0.977,56.171
					c-3.743,21.945-9.083,53.271,4.555,76.578"/>
				<path fill="none" stroke="#FFF6E0" stroke-width="5.094" stroke-linecap="round" stroke-linejoin="round" d="M607.444,248.639
					c0.011,0.014,0.022,0.028,0.033,0.042c-0.011,0.014-0.022,0.028-0.033,0.042"/>
				
					<path fill="none" stroke="#FFF6E0" stroke-width="5.094" stroke-linecap="round" stroke-linejoin="round" stroke-dasharray="0.1012,13.4962" d="
					M600.631,260.336c-9.713,22.475-4.943,50.455-1.514,70.564c3.513,20.606,7.14,41.918,0.977,56.171
					c-3.817,8.828-11.894,20.708-37.85,21.942l-8.69,0.411"/>
				<polyline fill="none" stroke="#FFF6E0" stroke-width="5.094" stroke-linecap="round" stroke-linejoin="round" points="
					546.814,409.744 546.764,409.746 546.745,409.794 				"/>
				
					<path fill="none" stroke="#FFF6E0" stroke-width="5.094" stroke-linecap="round" stroke-linejoin="round" stroke-dasharray="0.1018,13.5702" d="
					M541.868,422.457l-0.678,1.759c-2.231,5.783-15.291,34.655-53.526,34.655c0,0,0,0-0.007,0c-3.418,0-7.012-0.224-10.673-0.678
					c-19.061-2.332-37.321-6.991-54.978-11.5c-20.579-5.255-40.026-10.219-57.344-10.219c-12.045,0-21.782,2.431-29.648,6.35"/>
			</g>
		</g>
	</g>
</g>
</svg>
